<svg version="1.1" id="Layer_1" xmlns="http://www.w3.org/2000/svg" xmlns:xlink="http://www.w3.org/1999/xlink" x="0px" y="0px"
	 width="100%" viewBox="0 0 256 120" enable-background="new 0 0 256 120" xml:space="preserve">
<path fill="#211C1C" opacity="1.000000" stroke="none" 
	d="
M1.000000,16.000000 
	C1.000000,15.555664 1.000000,15.111328 1.197744,14.081804 
	C1.585305,13.399132 1.775122,13.301646 2.211302,13.577055 
	C2.701882,14.120635 2.946099,14.291320 3.527761,14.652651 
	C5.691091,14.898727 7.516970,15.002457 9.342860,15.002642 
	C89.070747,15.010695 168.798630,15.009517 248.526520,15.010221 
	C249.858047,15.010233 251.349701,14.648223 252.474396,15.133060 
	C253.522110,15.584718 254.179321,16.942225 254.539536,17.931446 
	C240.082947,17.968954 226.095062,17.941061 212.107864,18.027632 
	C210.378586,18.038334 208.653076,18.658514 206.719635,19.093348 
	C206.255981,19.375000 206.083389,19.619505 205.740662,19.949608 
	C205.315079,19.985613 205.144516,19.995955 204.675049,20.297073 
	C204.263474,33.468987 204.139389,46.350063 204.076782,59.231445 
	C204.074066,59.789425 204.636688,60.350159 205.051483,61.147812 
	C205.442993,61.598339 205.718948,61.810661 205.998505,62.010406 
	C206.002090,61.997829 205.977005,62.005104 206.097534,62.236847 
	C206.496841,62.672886 206.775604,62.877186 207.347046,63.372868 
	C222.890167,63.664246 238.140640,63.664246 253.646942,63.664246 
	C253.817505,66.015167 253.923004,67.469208 254.020752,69.167236 
	C254.012985,69.411217 254.009354,69.899422 253.540848,69.925514 
	C230.584610,69.962074 208.096802,69.948318 185.609314,70.026817 
	C183.713715,70.033432 181.820267,70.658508 179.630585,71.242569 
	C179.215714,77.993866 179.096069,84.498863 179.004501,91.317818 
	C179.381683,92.124191 179.730804,92.616592 180.373154,93.396225 
	C182.482849,93.789925 184.299240,93.987160 186.115814,93.989006 
	C207.426208,94.010605 228.736694,93.979439 250.046951,94.040474 
	C252.095993,94.046341 255.139084,92.887054 254.518890,96.936493 
	C170.372467,96.944847 86.693207,96.928520 3.026485,96.504524 
	C4.424750,95.398956 5.790197,94.150452 7.199695,94.098572 
	C13.268579,93.875175 19.352699,94.101662 25.426477,93.959526 
	C28.288473,93.892540 31.139650,93.363258 34.007343,92.786377 
	C34.031910,92.358482 34.044857,92.187660 34.397346,91.813049 
	C34.906498,85.035622 35.091370,78.462227 35.195122,71.887550 
	C35.199722,71.596420 34.464691,71.293617 33.771729,70.696686 
	C23.643068,70.231224 13.816860,70.065331 3.988844,69.655205 
	C3.987037,69.410980 3.971737,68.922752 3.982217,68.494553 
	C3.651337,65.174141 4.632792,63.831993 7.842501,63.942158 
	C14.000269,64.153496 20.172701,64.099899 26.334404,63.956516 
	C28.895555,63.896915 31.444796,63.325428 34.004715,62.739960 
	C34.009972,62.493214 34.044155,62.000793 34.256702,61.900955 
	C34.734653,61.610760 34.911835,61.358440 35.247154,61.027573 
	C35.493515,61.010986 35.987274,61.002338 36.295238,60.717003 
	C36.718914,47.516861 36.846355,34.602108 36.910561,21.687046 
	C36.913338,21.128279 36.334126,20.566618 35.770195,19.990791 
	C35.344360,19.958164 35.174355,19.941051 34.906708,19.718018 
	C34.623833,19.255062 34.378872,19.083118 33.771729,18.696701 
	C23.310045,18.231724 13.150805,18.066313 2.946277,17.590340 
	C2.267325,16.853184 1.633663,16.426592 1.000000,16.000000 
M197.133148,17.993101 
	C145.728745,18.003677 94.324348,18.014254 42.347897,18.619696 
	C42.347897,33.202538 42.347897,47.785381 42.347897,63.002853 
	C44.569035,63.002853 46.519714,63.002857 48.470390,63.002857 
	C76.614632,63.002861 104.758881,63.002895 132.903122,63.002853 
	C153.386795,63.002819 173.870483,63.003319 194.354156,63.001690 
	C196.675339,63.001507 199.075363,63.459736 199.041595,59.709095 
	C198.923218,46.553997 199.009949,33.397129 198.955795,20.241192 
	C198.952759,19.501217 198.384995,18.763565 197.133148,17.993101 
M65.481003,84.996971 
	C56.703827,84.996971 47.926651,84.996971 38.933491,84.996971 
	C39.043373,86.978737 39.121250,88.383316 39.195358,89.719879 
	C52.009701,89.719879 64.428169,89.719879 77.054031,89.719879 
	C76.956612,88.012718 76.876656,86.611557 76.784523,84.996971 
	C73.097961,84.996971 69.785728,84.996971 65.481003,84.996971 
M41.835621,75.625710 
	C41.104382,75.076920 40.373142,74.528130 39.247650,73.683449 
	C39.247650,76.460457 39.247650,78.636597 39.247650,79.810768 
	C41.810661,80.231155 43.708778,80.542488 45.514534,80.838669 
	C45.514534,78.549408 45.514534,76.297455 45.514534,73.854530 
	C44.193478,74.838013 43.295906,75.506218 41.835621,75.625710 
M104.032646,87.499542 
	C103.779243,87.863647 103.523102,88.226059 103.289833,88.602638 
	C103.284546,88.611160 103.538567,88.780312 104.303314,89.321854 
	C104.303314,88.013741 104.303314,87.134071 104.303314,86.254402 
	C104.059288,86.507133 103.815262,86.759865 104.032646,87.499542 
M132.004929,87.518555 
	C132.146637,87.923981 132.288361,88.329407 132.430069,88.734833 
	C132.655762,88.709610 132.881454,88.684395 133.107147,88.659180 
	C132.751648,88.044342 132.396164,87.429497 132.004929,87.518555 
z"/>
<path fill="#CE0908" opacity="1.000000" stroke="none" 
	d="
M247.000000,121.000000 
	C246.555664,121.000000 246.111328,121.000000 245.082214,120.657768 
	C242.517410,120.190445 240.537399,119.956490 238.557327,119.955986 
	C164.771225,119.937347 90.985123,119.947762 17.199059,119.901558 
	C15.130692,119.900261 13.062686,119.324883 10.961610,118.655106 
	C9.280651,114.556740 7.632595,110.820442 6.452313,107.039429 
	C74.143661,106.983192 141.367249,106.964142 208.590820,106.966141 
	C223.065643,106.966568 237.540482,107.042915 251.967316,107.436226 
	C250.291504,111.572075 248.663651,115.355995 247.004578,119.451218 
	C246.982254,120.175018 246.991119,120.587509 247.000000,121.000000 
z"/>
<path fill="#E40A08" opacity="1.000000" stroke="none" 
	d="
M3.190317,14.462006 
	C2.946099,14.291320 2.701882,14.120635 2.218284,13.566587 
	C1.978904,13.183225 2.019156,13.181827 1.987902,13.128714 
	C1.956648,13.075600 2.057486,13.004725 2.330216,12.731644 
	C3.805292,3.039154 3.854762,2.997562 13.874519,2.997559 
	C91.656471,2.997540 169.438431,3.003500 247.220367,2.962873 
	C249.144119,2.961869 251.067612,2.444901 253.310852,2.161252 
	C254.193161,2.793177 254.755875,3.432426 255.267670,4.412777 
	C255.811188,5.502588 256.405579,6.251297 257.000000,7.000003 
	C257.000000,9.042317 257.000000,11.084636 256.530945,13.555398 
	C253.898315,14.032283 251.734726,14.122878 249.571121,14.123074 
	C169.597427,14.130302 89.623749,14.126563 9.650063,14.143108 
	C7.496792,14.143554 5.343565,14.351058 3.190317,14.462006 
z"/>
<path fill="#FF0000" opacity="1.000000" stroke="none" 
	d="
M252.991226,2.168575 
	C251.067612,2.444901 249.144119,2.961869 247.220367,2.962873 
	C169.438431,3.003500 91.656471,2.997540 13.874519,2.997559 
	C3.854762,2.997562 3.805292,3.039154 2.241669,12.311150 
	C1.586927,9.775825 1.293464,7.387912 1.000000,5.000000 
	C1.085212,2.980576 0.029743,0.105640 4.746111,1.348243 
	C7.476423,1.797658 9.460601,1.986702 11.444828,1.987229 
	C70.677094,2.002944 129.909363,2.010653 189.141632,1.994269 
	C210.104233,1.988470 231.066818,1.916735 252.272583,1.939577 
	C252.674255,2.058892 252.832748,2.113733 252.991226,2.168575 
z"/>
<path fill="#FF0000" opacity="1.000000" stroke="none" 
	d="
M257.000000,98.000000 
	C257.000000,98.000000 257.000000,98.500000 256.696960,98.936325 
	C256.364532,100.560333 256.335114,101.748016 256.156372,103.194786 
	C255.686340,103.669968 255.365646,103.886055 255.030212,103.663483 
	C255.741135,98.253235 252.265472,98.997734 249.296921,98.997917 
	C169.139801,99.002831 88.982674,99.001831 8.825549,99.001831 
	C7.052255,99.001831 5.278961,99.001831 3.283795,99.001831 
	C3.144609,101.161392 3.049841,102.631775 2.673810,104.000565 
	C2.159807,103.577881 1.927067,103.256790 1.745258,102.527283 
	C1.718929,101.029099 1.641669,99.939331 1.640155,98.660995 
	C1.715900,98.472427 1.622242,98.076935 2.106719,97.980614 
	C86.065659,97.866570 169.540131,97.848061 253.014587,97.838173 
	C254.343063,97.838013 255.671524,97.943703 257.000000,98.000000 
z"/>
<path fill="#271B1B" opacity="1.000000" stroke="none" 
	d="
M3.527761,14.652651 
	C5.343565,14.351058 7.496792,14.143554 9.650063,14.143108 
	C89.623749,14.126563 169.597427,14.130302 249.571121,14.123074 
	C251.734726,14.122878 253.898315,14.032283 256.530945,13.991921 
	C257.000000,15.066669 257.000000,16.133339 256.792603,17.648655 
	C256.585175,18.097301 256.162323,18.044489 255.872055,18.022942 
	C255.390656,17.967915 255.199539,17.934439 255.008438,17.900965 
	C254.179321,16.942225 253.522110,15.584718 252.474396,15.133060 
	C251.349701,14.648223 249.858047,15.010233 248.526520,15.010221 
	C168.798630,15.009517 89.070747,15.010695 9.342860,15.002642 
	C7.516970,15.002457 5.691091,14.898727 3.527761,14.652651 
z"/>
<path fill="#271B1B" opacity="1.000000" stroke="none" 
	d="
M257.000000,97.666664 
	C255.671524,97.943703 254.343063,97.838013 253.014587,97.838173 
	C169.540131,97.848061 86.065659,97.866570 1.951054,97.966415 
	C1.310912,98.048538 1.000000,98.000000 1.000000,98.000000 
	C1.000000,97.555557 1.000000,97.111107 1.258967,96.435455 
	C2.016602,96.440231 2.515270,96.676208 3.013936,96.912186 
	C86.693207,96.928520 170.372467,96.944847 254.787552,96.865128 
	C256.015564,96.512726 256.507782,96.256363 257.000000,96.000000 
	C257.000000,96.444443 257.000000,96.888893 257.000000,97.666664 
z"/>
<path fill="#63070C" opacity="1.000000" stroke="none" 
	d="
M252.029404,1.875102 
	C231.066818,1.916735 210.104233,1.988470 189.141632,1.994269 
	C129.909363,2.010653 70.677094,2.002944 11.444828,1.987229 
	C9.460601,1.986702 7.476423,1.797658 5.246111,1.348243 
	C87.020897,1.000000 169.041794,1.000000 251.532867,1.218972 
	C252.003052,1.437943 252.029404,1.875102 252.029404,1.875102 
z"/>
<path fill="#63070C" opacity="1.000000" stroke="none" 
	d="
M10.994513,119.017189 
	C13.062686,119.324883 15.130692,119.900261 17.199059,119.901558 
	C90.985123,119.947762 164.771225,119.937347 238.557327,119.955986 
	C240.537399,119.956490 242.517410,120.190445 244.748718,120.657768 
	C166.979111,121.000000 88.958206,121.000000 10.468597,120.690262 
	C9.995076,119.967583 9.990273,119.554634 10.235589,119.094406 
	C10.655309,119.037148 10.824910,119.027168 10.994513,119.017189 
z"/>
<path fill="#FFFFFF" opacity="1.000000" stroke="none" 
	d="
M256.162323,18.044487 
	C256.162323,18.044489 256.585175,18.097301 256.792603,18.048651 
	C257.000000,42.687561 257.000000,67.375122 256.775085,92.513763 
	C256.550201,92.964844 256.099274,92.977859 256.041748,92.726166 
	C255.705460,92.294830 255.426712,92.115189 255.092438,91.613922 
	C254.979843,90.863144 254.922760,90.433990 254.939758,89.762894 
	C255.042313,89.354675 255.070786,89.188416 255.363190,88.933319 
	C255.369537,88.217148 255.111969,87.589813 254.930817,86.556442 
	C255.037903,84.774323 255.068588,83.398239 255.363220,81.933250 
	C255.369644,81.216736 255.112106,80.589127 254.925278,79.720688 
	C254.952545,79.318275 254.909119,79.156685 254.940582,78.666199 
	C254.965530,77.893143 254.915604,77.448990 254.939758,76.762886 
	C255.042297,76.354668 255.070786,76.188393 255.363861,75.932274 
	C255.366196,75.212044 255.103958,74.581665 254.909973,73.714745 
	C254.978195,73.478210 254.852692,73.002129 254.933548,72.671326 
	C254.960495,71.892967 254.906586,71.445404 254.927231,70.755646 
	C255.058731,70.354401 255.115677,70.195358 255.531555,69.853134 
	C255.633026,67.386726 255.375580,65.103500 255.090012,62.862732 
	C255.061890,62.905190 255.159012,62.935848 255.079834,62.703278 
	C255.000656,62.470707 254.852692,62.002155 254.933548,61.671349 
	C254.960495,60.892971 254.906601,60.445404 254.926682,59.758858 
	C255.053085,59.361626 255.105484,59.203369 255.538834,58.829788 
	C255.965637,47.213772 256.031616,35.813046 256.015411,24.412436 
	C256.014221,23.588600 255.413986,22.765615 255.044067,21.704243 
	C254.995865,21.466251 254.852692,21.002199 254.934326,20.684383 
	C255.053574,19.931377 255.091187,19.496191 255.375259,18.983185 
	C255.801910,18.618408 255.982117,18.331448 256.162323,18.044487 
z"/>
<path fill="#FFFFFF" opacity="1.000000" stroke="none" 
	d="
M1.000000,93.000000 
	C1.000000,68.312439 1.000000,43.624878 1.207517,18.517265 
	C1.415034,18.097214 1.838067,18.044804 1.933422,18.284843 
	C2.309504,18.703516 2.590230,18.882145 2.917764,19.385595 
	C3.025486,20.141008 3.086399,20.571602 3.075647,21.234753 
	C3.003982,21.467310 2.905808,21.944004 2.510715,22.140820 
	C2.058552,33.898720 1.986270,45.459801 1.983210,57.020901 
	C1.983031,57.695614 2.543007,58.370472 2.920816,59.282681 
	C3.048656,59.679348 3.097984,59.838593 3.066447,60.328640 
	C3.039493,61.107014 3.093403,61.554585 3.073321,62.236557 
	C2.999330,62.470963 2.840748,62.936085 2.889191,62.920776 
	C2.937634,62.905472 2.881365,62.820866 2.530105,63.026760 
	C2.396342,65.501572 2.613839,67.770485 2.914926,70.277496 
	C3.048114,70.676331 3.097713,70.837082 3.066446,71.328629 
	C3.039490,72.107002 3.093400,72.554565 3.076190,73.244492 
	C2.977071,73.652802 2.949070,73.818771 2.632694,74.075241 
	C2.530321,74.785316 2.716323,75.404877 2.944301,76.273346 
	C3.035627,76.683113 3.084979,76.843987 3.059419,77.333778 
	C3.034449,78.106857 3.084390,78.551018 3.060237,79.237228 
	C2.957622,79.645531 2.929099,79.811790 2.616351,80.076080 
	C2.522195,80.790886 2.712264,81.407669 2.938495,82.436752 
	C2.948512,84.227417 2.922367,85.605782 2.612271,87.080994 
	C2.519655,87.793373 2.710988,88.408905 2.944298,89.273331 
	C3.035626,89.683113 3.084978,89.843987 3.058621,90.322296 
	C2.939390,91.071579 2.895867,91.503426 2.605461,92.011536 
	C2.205925,92.384529 2.053270,92.681259 1.675166,92.971397 
	C1.449716,92.964798 1.000000,93.000000 1.000000,93.000000 
z"/>
<path fill="#FFFFFF" opacity="1.000000" stroke="none" 
	d="
M255.044952,104.102135 
	C255.365646,103.886055 255.686340,103.669968 256.325195,103.260101 
	C256.643402,103.066315 257.000000,103.000000 257.000000,103.000000 
	C257.000000,108.890846 257.000000,114.781685 257.000000,121.000000 
	C254.336273,121.000000 251.659195,121.000000 248.491089,120.690231 
	C248.004944,119.967476 248.009796,119.554497 248.344269,118.977333 
	C250.161057,115.548103 251.648254,112.283051 253.447693,108.880173 
	C254.117813,107.500496 254.475708,106.258652 254.910583,104.793716 
	C254.987549,104.570618 255.044952,104.102127 255.044952,104.102135 
z"/>
<path fill="#FFFFFF" opacity="1.000000" stroke="none" 
	d="
M9.985470,119.141693 
	C9.990273,119.554634 9.995076,119.967583 9.999939,120.690262 
	C7.049745,121.000000 4.099490,121.000000 1.000000,121.000000 
	C1.000000,115.313728 1.000000,109.626572 1.178154,103.502991 
	C1.356308,103.066574 1.694330,102.935699 1.694329,102.935699 
	C1.927067,103.256790 2.159807,103.577881 2.702482,104.235321 
	C3.012418,104.571663 3.166280,105.018692 3.092757,105.353333 
	C3.634331,106.797974 4.249427,107.907967 4.928997,109.387634 
	C6.657470,112.885437 8.321469,116.013565 9.985470,119.141693 
z"/>
<path fill="#3B3B3B" opacity="1.000000" stroke="none" 
	d="
M256.099274,92.977859 
	C256.099274,92.977859 256.550201,92.964844 256.775085,92.982422 
	C257.000000,93.750000 257.000000,94.500000 257.000000,95.625000 
	C256.507782,96.256363 256.015564,96.512726 255.254700,96.840446 
	C255.139084,92.887054 252.095993,94.046341 250.046951,94.040474 
	C228.736694,93.979439 207.426208,94.010605 186.115814,93.989006 
	C184.299240,93.987160 182.482849,93.789925 180.833435,93.366409 
	C206.033401,93.025520 231.066345,93.001686 256.099274,92.977859 
z"/>
<path fill="#3B3B3B" opacity="1.000000" stroke="none" 
	d="
M1.000000,93.375000 
	C1.000000,93.000000 1.449716,92.964798 2.149900,92.990082 
	C13.231966,93.024734 23.613846,93.034096 33.995728,93.043457 
	C31.139650,93.363258 28.288473,93.892540 25.426477,93.959526 
	C19.352699,94.101662 13.268579,93.875175 7.199695,94.098572 
	C5.790197,94.150452 4.424750,95.398956 3.026486,96.504517 
	C2.515270,96.676208 2.016602,96.440231 1.258967,96.102127 
	C1.000000,95.250000 1.000000,94.500000 1.000000,93.375000 
z"/>
<path fill="#FFFFFF" opacity="1.000000" stroke="none" 
	d="
M252.272583,1.939577 
	C252.029404,1.875102 252.003052,1.437943 252.001526,1.218972 
	C253.579865,1.000000 255.159729,1.000000 257.000000,1.000000 
	C257.000000,2.331256 257.000000,3.668238 256.709106,5.464185 
	C256.051697,5.305991 255.685135,4.688831 255.318573,4.071672 
	C254.755875,3.432426 254.193161,2.793177 253.310852,2.161251 
	C252.832748,2.113733 252.674255,2.058892 252.272583,1.939577 
z"/>
<path fill="#271B1B" opacity="1.000000" stroke="none" 
	d="
M1.000000,5.444164 
	C1.293464,7.387912 1.586927,9.775825 1.968938,12.584231 
	C2.057486,13.004725 1.956648,13.075600 1.714287,13.189964 
	C1.314617,13.202888 1.157308,13.101444 1.000000,13.000000 
	C1.000000,10.629442 1.000000,8.258885 1.000000,5.444164 
z"/>
<path fill="#271B1B" opacity="1.000000" stroke="none" 
	d="
M1.745259,102.527283 
	C1.694330,102.935699 1.356308,103.066574 1.178154,103.033287 
	C1.000000,101.933327 1.000000,100.866661 1.141091,99.362343 
	C1.282183,98.924698 1.564409,98.849564 1.564409,98.849564 
	C1.641669,99.939331 1.718929,101.029099 1.745259,102.527283 
z"/>
<path fill="#271B1B" opacity="1.000000" stroke="none" 
	d="
M255.267670,4.412775 
	C255.685135,4.688831 256.051697,5.305991 256.709106,5.961576 
	C257.000000,6.000000 257.000000,6.500000 257.000000,6.750003 
	C256.405579,6.251297 255.811188,5.502588 255.267670,4.412775 
z"/>
<path fill="#271B1B" opacity="1.000000" stroke="none" 
	d="
M1.838067,18.044804 
	C1.838067,18.044804 1.415034,18.097214 1.207517,18.048607 
	C1.000000,17.555555 1.000000,17.111111 1.000000,16.333332 
	C1.633663,16.426592 2.267325,16.853184 2.659714,17.641251 
	C2.224982,18.016750 2.031524,18.030777 1.838067,18.044804 
z"/>
<path fill="#271B1B" opacity="1.000000" stroke="none" 
	d="
M257.000000,102.600006 
	C257.000000,103.000000 256.643402,103.066315 256.474548,103.001007 
	C256.335114,101.748016 256.364532,100.560333 256.696960,99.186325 
	C257.000000,100.066673 257.000000,101.133339 257.000000,102.600006 
z"/>
<path fill="#63070C" opacity="1.000000" stroke="none" 
	d="
M248.014648,119.141510 
	C248.009796,119.554497 248.004944,119.967476 248.000046,120.690231 
	C248.000000,121.000000 247.500000,121.000000 247.250000,121.000000 
	C246.991119,120.587509 246.982254,120.175018 247.249329,119.421280 
	C247.525284,119.080032 248.014648,119.141510 248.014648,119.141510 
z"/>
<path fill="#FF0000" opacity="1.000000" stroke="none" 
	d="
M1.000000,13.250000 
	C1.157308,13.101444 1.314617,13.202888 1.745541,13.243078 
	C2.019156,13.181827 1.978904,13.183225 1.971922,13.193692 
	C1.775122,13.301646 1.585305,13.399132 1.197744,13.748308 
	C1.000000,14.000000 1.000000,13.500000 1.000000,13.250000 
z"/>
<path fill="#3B3B3B" opacity="1.000000" stroke="none" 
	d="
M1.640154,98.660995 
	C1.564409,98.849564 1.282183,98.924698 1.141091,98.962349 
	C1.000000,99.000000 1.000000,98.500000 1.000000,98.250000 
	C1.000000,98.000000 1.310912,98.048538 1.466577,98.062737 
	C1.622242,98.076935 1.715900,98.472427 1.640154,98.660995 
z"/>
<path fill="#030303" opacity="1.000000" stroke="none" 
	d="
M42.919945,18.024828 
	C94.324348,18.014254 145.728745,18.003677 197.580444,18.474218 
	C198.027740,33.191021 198.027740,47.426704 198.027740,61.676315 
	C145.947083,61.676315 94.745041,61.676315 42.919945,61.676315 
	C42.919945,46.906830 42.919945,32.465828 42.919945,18.024828 
M51.421482,26.702360 
	C51.322914,30.751272 51.064106,34.806190 51.215450,38.845737 
	C51.266247,40.201572 52.361549,41.518276 53.917091,42.915150 
	C67.473831,42.928474 81.031036,42.885506 94.586929,42.999516 
	C97.529373,43.024261 99.557716,42.614182 99.468712,38.996483 
	C99.653236,38.999817 99.837761,39.003147 100.175316,39.805847 
	C100.843712,40.194984 101.510071,40.919388 102.180809,40.923473 
	C114.165329,40.996403 126.150848,41.026951 138.134415,40.900730 
	C139.088730,40.890682 140.030258,39.666454 141.531281,38.996513 
	C141.715744,39.001488 141.900223,39.006462 142.031296,39.849331 
	C143.116714,40.883427 144.193237,42.805866 145.288925,42.816856 
	C159.219849,42.956589 173.153534,42.821838 187.856018,42.813438 
	C188.528534,41.525387 189.696915,40.268478 189.780136,38.943409 
	C190.025497,35.037014 189.841095,31.103628 189.593246,26.416439 
	C188.429550,25.943705 187.268677,25.067930 186.101730,25.059761 
	C172.466675,24.964315 158.830597,24.978506 145.195145,25.041111 
	C144.147278,25.045921 143.102112,25.635319 142.055679,25.952997 
	C142.127838,26.635839 142.199982,27.318684 142.272125,28.001526 
	C157.218384,28.001526 172.164627,28.001526 187.036377,28.919153 
	C186.997543,32.578514 186.958725,36.237877 186.158371,39.580933 
	C184.374237,39.375595 182.590942,39.001060 180.805817,38.992092 
	C168.217194,38.928875 155.628174,38.940815 143.632126,38.351257 
	C156.276398,38.232807 168.921432,37.993931 181.564468,38.073109 
	C185.116989,38.095356 186.090637,36.905647 186.103745,33.480377 
	C186.117111,29.996674 185.027649,28.878716 181.523804,28.933508 
	C169.697662,29.118437 157.866653,29.036758 146.038071,28.963692 
	C144.464432,28.953974 142.849823,28.547062 141.334015,28.070236 
	C139.619110,27.530773 138.004303,26.126780 136.328644,26.097715 
	C125.669067,25.912838 115.004601,25.981501 104.342064,26.033201 
	C103.062561,26.039404 101.743568,26.314163 100.515701,26.697620 
	C98.358955,27.371164 96.270569,28.857571 94.132538,28.898212 
	C82.474319,29.119823 70.808159,29.109091 59.148235,28.938826 
	C55.774872,28.889565 54.899277,30.134001 54.915161,33.308430 
	C54.931194,36.512390 55.488754,38.148201 59.264595,38.074051 
	C70.422890,37.854927 81.588547,37.956287 92.750557,38.038181 
	C94.489357,38.050941 96.224091,38.618027 97.031097,38.955193 
	C84.638382,38.958435 72.245392,38.921879 59.853241,39.006538 
	C57.927448,39.019699 56.005440,39.586716 54.012253,38.997719 
	C53.986164,35.344090 53.960075,31.690458 54.878986,28.000818 
	C62.348644,27.994961 69.819687,28.076696 77.287560,27.958105 
	C84.458122,27.844233 91.696190,28.448994 98.832214,26.610489 
	C97.531578,25.402386 96.217964,25.027185 94.903084,25.022688 
	C81.955765,24.978403 69.008018,24.962433 56.061073,25.044498 
	C54.692818,25.053173 53.328861,25.740532 51.421482,26.702360 
M140.029663,58.019882 
	C126.700691,58.025249 113.371712,58.030617 99.574738,57.797028 
	C99.371086,57.517391 99.167435,57.237755 98.980080,56.036263 
	C98.980080,52.150513 98.980080,48.264763 98.980080,44.035988 
	C82.424438,44.035988 66.733582,44.035988 50.574730,43.797016 
	C50.371078,43.517380 50.167427,43.237743 49.980114,42.030193 
	C50.009415,35.684917 50.038715,29.339643 50.996521,23.020163 
	C65.325233,23.022921 79.654404,23.075323 93.981903,22.944834 
	C95.287346,22.932943 96.582115,21.747755 97.881836,21.107416 
	C96.646416,20.406940 95.416428,19.108227 94.174744,19.096930 
	C78.847595,18.957464 63.517990,19.085943 48.190914,18.942503 
	C44.875515,18.911476 43.899529,20.035357 43.945068,23.264183 
	C44.102474,34.425049 44.104164,45.590908 43.944336,56.751705 
	C43.897823,59.999714 44.913555,61.059349 48.206345,61.053459 
	C96.357414,60.967297 144.508759,60.957615 192.659729,61.067242 
	C196.336258,61.075611 197.102005,59.693947 197.054535,56.385761 
	C196.896759,45.391552 196.863083,34.391197 197.069427,23.398603 
	C197.137161,19.790653 195.827698,18.908222 192.443085,18.941458 
	C177.449341,19.088696 162.452835,18.951294 147.458939,19.091114 
	C146.006256,19.104662 144.564728,20.317467 143.118027,20.973572 
	C144.539780,21.658678 145.954575,22.921356 147.384384,22.938616 
	C160.211746,23.093470 173.041992,22.990845 185.870651,23.075018 
	C187.598770,23.086357 189.322845,23.713974 191.022858,24.980518 
	C191.027222,30.972761 191.031570,36.965004 190.796982,43.425255 
	C190.517349,43.628914 190.237717,43.832569 189.029663,44.019886 
	C173.544144,44.019886 158.058624,44.019886 142.035965,44.019886 
	C142.035965,48.775059 142.035965,52.866165 141.796997,57.425266 
	C141.517365,57.628918 141.237717,57.832569 140.029663,58.019882 
M99.996101,46.657127 
	C99.996056,48.320217 100.206284,50.015717 99.955933,51.640232 
	C99.248283,56.232155 101.325066,57.254807 105.573524,57.095482 
	C113.877274,56.784073 122.200951,57.004105 130.516373,57.004108 
	C141.389999,57.004116 141.298645,57.006069 141.064224,46.081249 
	C141.002167,43.189369 140.320328,41.906021 137.145859,41.948898 
	C126.005234,42.099380 114.860718,42.070568 103.719093,41.963326 
	C100.922043,41.936401 99.670410,42.907547 99.996101,46.657127 
M100.105614,23.310225 
	C101.156662,23.868536 102.202881,24.901512 103.259499,24.912258 
	C114.732841,25.028954 126.209473,25.070959 137.679718,24.849409 
	C138.794037,24.827888 139.871658,22.907438 140.966324,21.868460 
	C139.785049,20.915434 138.618774,19.156969 137.420166,19.134649 
	C126.115845,18.924126 114.805656,19.057840 103.498047,18.973064 
	C100.944901,18.953920 99.728539,19.820053 100.105614,23.310225 
z"/>
<path fill="#171105" opacity="1.000000" stroke="none" 
	d="
M254.865677,90.004837 
	C254.922760,90.433990 254.979843,90.863144 254.614944,91.630020 
	C230.891235,91.977158 207.589478,92.008125 184.287903,91.953064 
	C182.516678,91.948883 180.746887,91.334564 178.976440,91.003853 
	C179.096069,84.498863 179.215714,77.993866 180.107651,71.243881 
	C205.537521,70.998543 230.195114,70.998192 254.852692,70.997841 
	C254.906586,71.445404 254.960495,71.892967 254.474258,72.668549 
	C232.166077,72.997719 210.397949,72.973145 188.630157,73.045494 
	C186.750397,73.051743 184.872757,73.699036 183.016785,74.023254 
	C183.039429,73.997963 183.091293,74.041916 182.812225,74.246307 
	C182.761856,78.303047 185.783951,76.932259 187.683395,76.940643 
	C210.077148,77.039436 232.471497,77.004539 254.865677,77.004837 
	C254.915604,77.448990 254.965530,77.893143 254.480469,78.665489 
	C232.175446,78.994469 210.405334,78.969231 188.635559,79.042130 
	C186.759491,79.048409 184.885574,79.704529 183.027435,80.032684 
	C183.044189,80.006592 183.091675,80.047867 182.812134,80.250954 
	C182.776642,84.302444 185.796326,82.931091 187.702240,82.940666 
	C207.984741,83.042625 228.268005,82.987305 248.550934,83.033157 
	C250.324982,83.037163 252.098129,83.451569 253.871689,83.675346 
	C253.869751,84.231239 253.867813,84.787125 253.865875,85.343018 
	C252.083633,85.560677 250.301819,85.963654 248.519104,85.967621 
	C228.402420,86.012428 208.285553,85.971527 188.169006,86.039688 
	C186.446198,86.045532 184.725494,86.667023 182.743027,87.230988 
	C182.700867,91.418556 185.813110,89.921844 187.694672,89.931335 
	C210.084564,90.044281 232.475220,90.004539 254.865677,90.004837 
z"/>
<path fill="#171105" opacity="1.000000" stroke="none" 
	d="
M3.147310,73.002136 
	C3.093400,72.554565 3.039490,72.107002 3.525727,71.331421 
	C14.068642,71.001022 24.071409,70.998642 34.074177,70.996254 
	C34.464691,71.293617 35.199722,71.596420 35.195122,71.887550 
	C35.091370,78.462227 34.906498,85.035622 33.922226,91.805382 
	C23.022491,91.979431 12.937418,91.957359 2.852344,91.935280 
	C2.895867,91.503426 2.939390,91.071579 3.518730,90.323013 
	C11.864482,90.005310 19.674864,90.048805 27.484018,89.970253 
	C29.304714,89.951935 32.168278,90.744354 30.705511,86.702110 
	C21.670706,86.146751 12.926740,85.891747 4.182774,85.636742 
	C4.151577,84.979759 4.120379,84.322784 4.089181,83.665802 
	C5.550849,83.445305 7.010633,83.050201 8.474509,83.034409 
	C14.972970,82.964294 21.473328,83.055687 27.971325,82.966629 
	C29.682951,82.943176 32.264400,83.354324 30.932400,80.027802 
	C30.955847,80.007195 30.989359,80.058731 30.709946,79.744339 
	C21.331799,79.285019 12.233065,79.140099 3.134331,78.995178 
	C3.084390,78.551018 3.034449,78.106857 3.519528,77.334496 
	C11.867140,77.005287 19.680540,77.063492 27.491688,76.956734 
	C29.194363,76.933464 32.277843,77.923225 30.935032,74.020439 
	C30.960682,73.998451 31.005852,74.048546 30.721235,73.737869 
	C21.340183,73.285507 12.243747,73.143822 3.147310,73.002136 
z"/>
<path fill="#171105" opacity="1.000000" stroke="none" 
	d="
M254.852692,59.997833 
	C254.906601,60.445404 254.960495,60.892971 254.474258,61.668564 
	C237.948410,61.999428 221.962708,62.002266 205.977005,62.005104 
	C205.977005,62.005104 206.002090,61.997829 206.003693,61.539406 
	C206.002075,47.361965 205.998871,33.642952 205.995667,19.923941 
	C206.083389,19.619505 206.255981,19.375000 207.196701,19.094650 
	C223.629562,19.019587 239.379181,19.040295 255.128799,19.061003 
	C255.091187,19.496191 255.053574,19.931377 254.475037,20.681576 
	C240.672775,20.997749 227.411224,20.962864 214.150375,21.044216 
	C212.430099,21.054771 210.713516,21.665190 208.697052,22.290863 
	C208.286163,34.170586 208.160019,45.757122 208.102173,57.344002 
	C208.099396,57.897045 208.700500,58.453098 209.007553,59.006523 
	C208.994720,59.005295 208.992249,58.979637 209.282227,59.283474 
	C224.665695,59.724152 239.759186,59.860992 254.852692,59.997833 
z"/>
<path fill="#3B3B3B" opacity="1.000000" stroke="none" 
	d="
M42.633919,18.322262 
	C42.919945,32.465828 42.919945,46.906830 42.919945,61.676315 
	C94.745041,61.676315 145.947083,61.676315 198.027740,61.676315 
	C198.027740,47.426704 198.027740,33.191021 198.053894,18.490084 
	C198.384995,18.763565 198.952759,19.501217 198.955795,20.241192 
	C199.009949,33.397129 198.923218,46.553997 199.041595,59.709095 
	C199.075363,63.459736 196.675339,63.001507 194.354156,63.001690 
	C173.870483,63.003319 153.386795,63.002819 132.903122,63.002853 
	C104.758881,63.002895 76.614632,63.002861 48.470390,63.002857 
	C46.519714,63.002857 44.569035,63.002853 42.347897,63.002853 
	C42.347897,47.785381 42.347897,33.202538 42.633919,18.322262 
z"/>
<path fill="#171105" opacity="1.000000" stroke="none" 
	d="
M3.147313,62.002151 
	C3.093403,61.554585 3.039493,61.107014 3.525729,60.331429 
	C10.844133,60.002224 17.624241,60.091610 24.399696,59.953167 
	C26.941284,59.901234 29.472052,59.319706 32.006531,58.992470 
	C32.005310,59.005306 31.979639,59.007751 32.283474,58.717766 
	C32.705891,46.843578 32.837715,35.259445 32.902477,23.674938 
	C32.905594,23.117542 32.317535,22.556841 31.711571,21.699114 
	C21.994682,21.267765 12.570997,21.134979 3.147312,21.002193 
	C3.086399,20.571602 3.025486,20.141008 3.394114,19.371048 
	C13.907163,19.019876 23.990669,19.008072 34.074177,18.996267 
	C34.378872,19.083118 34.623833,19.255062 34.905159,20.195312 
	C35.001102,34.267075 35.000946,47.655617 35.000793,61.044159 
	C34.911835,61.358440 34.734653,61.610760 33.783066,61.900707 
	C23.113695,62.000916 13.130504,62.001534 3.147313,62.002151 
z"/>
<path fill="#FFFFFF" opacity="1.000000" stroke="none" 
	d="
M65.977249,84.996971 
	C69.785728,84.996971 73.097961,84.996971 76.784523,84.996971 
	C76.876656,86.611557 76.956612,88.012718 77.054031,89.719879 
	C64.428169,89.719879 52.009701,89.719879 39.195358,89.719879 
	C39.121250,88.383316 39.043373,86.978737 38.933491,84.996971 
	C47.926651,84.996971 56.703827,84.996971 65.977249,84.996971 
z"/>
<path fill="#0B0909" opacity="1.000000" stroke="none" 
	d="
M179.004501,91.317818 
	C180.746887,91.334564 182.516678,91.948883 184.287903,91.953064 
	C207.589478,92.008125 230.891235,91.977158 254.670471,91.951645 
	C255.426712,92.115189 255.705460,92.294830 256.041748,92.726166 
	C231.066345,93.001686 206.033401,93.025520 180.540192,93.079170 
	C179.730804,92.616592 179.381683,92.124191 179.004501,91.317818 
z"/>
<path fill="#000000" opacity="1.000000" stroke="none" 
	d="
M254.927231,70.755646 
	C230.195114,70.998192 205.537521,70.998543 180.402893,70.997574 
	C181.820267,70.658508 183.713715,70.033432 185.609314,70.026817 
	C208.096802,69.948318 230.584610,69.962074 253.829788,69.976074 
	C254.782364,70.012459 254.977493,70.024391 255.172638,70.036316 
	C255.115677,70.195358 255.058731,70.354401 254.927231,70.755646 
z"/>
<path fill="#3B3B3B" opacity="1.000000" stroke="none" 
	d="
M254.028503,68.923248 
	C253.923004,67.469208 253.817505,66.015167 253.646942,63.664246 
	C238.140640,63.664246 222.890167,63.664246 207.809708,63.341820 
	C223.706146,62.991547 239.432571,62.963696 255.159012,62.935844 
	C255.159012,62.935848 255.061890,62.905190 255.033020,63.274200 
	C254.678925,65.403229 254.353729,67.163239 254.028503,68.923248 
z"/>
<path fill="#000000" opacity="1.000000" stroke="none" 
	d="
M255.375259,18.983185 
	C239.379181,19.040295 223.629562,19.019587 207.402893,18.997574 
	C208.653076,18.658514 210.378586,18.038334 212.107864,18.027632 
	C226.095062,17.941061 240.082947,17.968954 254.539536,17.931446 
	C255.199539,17.934439 255.390656,17.967915 255.872055,18.022940 
	C255.982117,18.331448 255.801910,18.618408 255.375259,18.983185 
z"/>
<path fill="#000000" opacity="1.000000" stroke="none" 
	d="
M255.079834,62.703278 
	C239.432571,62.963696 223.706146,62.991547 207.517029,63.050446 
	C206.775604,62.877186 206.496841,62.672886 206.097534,62.236847 
	C221.962708,62.002266 237.948410,61.999428 254.393402,61.999371 
	C254.852692,62.002155 255.000656,62.470707 255.079834,62.703278 
z"/>
<path fill="#000000" opacity="1.000000" stroke="none" 
	d="
M205.740662,19.949608 
	C205.998871,33.642952 206.002075,47.361965 206.000092,61.551979 
	C205.718948,61.810661 205.442993,61.598339 205.075775,60.689178 
	C204.981018,46.663654 204.977493,33.334976 204.973969,20.006294 
	C205.144516,19.995955 205.315079,19.985613 205.740662,19.949608 
z"/>
<path fill="#000000" opacity="1.000000" stroke="none" 
	d="
M35.247154,61.027573 
	C35.000946,47.655617 35.001102,34.267075 35.002800,20.401236 
	C35.174355,19.941051 35.344360,19.958164 35.760422,20.458635 
	C36.000072,34.295441 35.993675,47.648891 35.987274,61.002338 
	C35.987274,61.002338 35.493515,61.010986 35.247154,61.027573 
z"/>
<path fill="#3B3B3B" opacity="1.000000" stroke="none" 
	d="
M36.295242,60.717003 
	C35.993675,47.648891 36.000072,34.295441 36.016251,20.474148 
	C36.334126,20.566618 36.913338,21.128279 36.910561,21.687046 
	C36.846355,34.602108 36.718914,47.516861 36.295242,60.717003 
z"/>
<path fill="#3B3B3B" opacity="1.000000" stroke="none" 
	d="
M204.675049,20.297073 
	C204.977493,33.334976 204.981018,46.663654 204.960236,60.450974 
	C204.636688,60.350159 204.074066,59.789425 204.076782,59.231445 
	C204.139389,46.350063 204.263474,33.468987 204.675049,20.297073 
z"/>
<path fill="#FFFFFF" opacity="1.000000" stroke="none" 
	d="
M42.116974,75.900070 
	C43.295906,75.506218 44.193478,74.838013 45.514534,73.854530 
	C45.514534,76.297455 45.514534,78.549408 45.514534,80.838669 
	C43.708778,80.542488 41.810661,80.231155 39.247650,79.810768 
	C39.247650,78.636597 39.247650,76.460457 39.247650,73.683449 
	C40.373142,74.528130 41.104382,75.076920 42.116974,75.900070 
z"/>
<path fill="#3B3B3B" opacity="1.000000" stroke="none" 
	d="
M33.999454,62.986710 
	C31.444796,63.325428 28.895555,63.896915 26.334404,63.956516 
	C20.172701,64.099899 14.000269,64.153496 7.842501,63.942158 
	C4.632792,63.831993 3.651337,65.174141 3.697663,68.236359 
	C3.228874,66.544533 3.055120,64.682701 2.881365,62.820866 
	C2.881365,62.820866 2.937634,62.905472 3.369543,62.942505 
	C13.867453,62.981930 23.933455,62.984322 33.999454,62.986710 
z"/>
<path fill="#0B0909" opacity="1.000000" stroke="none" 
	d="
M2.605461,92.011536 
	C12.937418,91.957359 23.022491,91.979431 33.582687,92.009171 
	C34.044857,92.187660 34.031910,92.358482 34.007343,92.786377 
	C23.613846,93.034096 13.231966,93.024734 2.375350,92.996689 
	C2.053270,92.681259 2.205925,92.384529 2.605461,92.011536 
z"/>
<path fill="#000000" opacity="1.000000" stroke="none" 
	d="
M33.771729,18.696701 
	C23.990669,19.008072 13.907163,19.019876 3.347305,19.046227 
	C2.590230,18.882145 2.309504,18.703516 1.933422,18.284843 
	C2.031524,18.030777 2.224982,18.016750 2.705003,17.951813 
	C13.150805,18.066313 23.310045,18.231724 33.771729,18.696701 
z"/>
<path fill="#000000" opacity="1.000000" stroke="none" 
	d="
M34.004715,62.739964 
	C23.933455,62.984322 13.867453,62.981930 3.321100,62.957809 
	C2.840748,62.936085 2.999330,62.470963 3.073321,62.236557 
	C13.130504,62.001534 23.113695,62.000916 33.570518,62.000546 
	C34.044155,62.000793 34.009972,62.493214 34.004715,62.739964 
z"/>
<path fill="#000000" opacity="1.000000" stroke="none" 
	d="
M33.771729,70.696686 
	C24.071409,70.998642 14.068642,71.001022 3.606593,71.000618 
	C3.097713,70.837082 3.048114,70.676331 3.206625,70.257805 
	C3.606707,69.966492 3.798679,69.932968 3.990651,69.899429 
	C13.816860,70.065331 23.643068,70.231224 33.771729,70.696686 
z"/>
<path fill="#271B1B" opacity="1.000000" stroke="none" 
	d="
M254.020752,69.167236 
	C254.353729,67.163239 254.678925,65.403229 255.061127,63.231747 
	C255.375580,65.103500 255.633026,67.386726 255.531555,69.853134 
	C254.977493,70.024391 254.782364,70.012459 254.298294,69.949982 
	C254.009354,69.899422 254.012985,69.411217 254.020752,69.167236 
z"/>
<path fill="#271B1B" opacity="1.000000" stroke="none" 
	d="
M3.988844,69.655212 
	C3.798679,69.932968 3.606707,69.966492 3.123035,70.019714 
	C2.613839,67.770485 2.396342,65.501572 2.530105,63.026760 
	C3.055120,64.682701 3.228874,66.544533 3.687183,68.664558 
	C3.971737,68.922752 3.987037,69.410980 3.988844,69.655212 
z"/>
<path fill="#FFFFFF" opacity="1.000000" stroke="none" 
	d="
M103.801941,87.256073 
	C103.815262,86.759865 104.059288,86.507133 104.303314,86.254402 
	C104.303314,87.134071 104.303314,88.013741 104.303314,89.321854 
	C103.538567,88.780312 103.284546,88.611160 103.289833,88.602638 
	C103.523102,88.226059 103.779243,87.863647 103.801941,87.256073 
z"/>
<path fill="#FFFFFF" opacity="1.000000" stroke="none" 
	d="
M132.022797,87.166611 
	C132.396164,87.429497 132.751648,88.044342 133.107147,88.659180 
	C132.881454,88.684395 132.655762,88.709610 132.430069,88.734833 
	C132.288361,88.329407 132.146637,87.923981 132.022797,87.166611 
z"/>
<path fill="#63070C" opacity="1.000000" stroke="none" 
	d="
M4.864522,109.017967 
	C4.249427,107.907967 3.634331,106.797974 3.461903,105.528633 
	C5.529830,105.567589 7.155028,105.938805 8.780356,105.939377 
	C88.866447,105.967697 168.952545,105.970810 249.038635,105.924561 
	C250.970444,105.923447 252.901947,105.332596 254.833588,105.016808 
	C254.475708,106.258652 254.117813,107.500496 253.387299,108.583092 
	C252.681549,107.977325 252.348434,107.530815 252.015305,107.084297 
	C237.540482,107.042915 223.065643,106.966568 208.590820,106.966141 
	C141.367249,106.964142 74.143661,106.983192 6.173749,107.155624 
	C5.239780,107.883682 5.052150,108.450821 4.864522,109.017967 
z"/>
<path fill="#DF0C0A" opacity="1.000000" stroke="none" 
	d="
M251.967316,107.436226 
	C252.348434,107.530815 252.681549,107.977325 253.075073,108.720917 
	C251.648254,112.283051 250.161057,115.548103 248.344269,118.977333 
	C248.014648,119.141510 247.525284,119.080032 247.280548,119.109970 
	C248.663651,115.355995 250.291504,111.572075 251.967316,107.436226 
z"/>
<path fill="#DF0C0A" opacity="1.000000" stroke="none" 
	d="
M4.928996,109.387634 
	C5.052150,108.450821 5.239780,107.883682 5.705975,107.200348 
	C7.632595,110.820442 9.280651,114.556740 10.961610,118.655106 
	C10.824910,119.027168 10.655309,119.037148 10.235588,119.094406 
	C8.321469,116.013565 6.657470,112.885437 4.928996,109.387634 
z"/>
<path fill="#DF0C0A" opacity="1.000000" stroke="none" 
	d="
M254.910568,104.793716 
	C252.901947,105.332596 250.970444,105.923447 249.038635,105.924561 
	C168.952545,105.970810 88.866447,105.967697 8.780356,105.939377 
	C7.155028,105.938805 5.529830,105.567589 3.535425,105.193993 
	C3.166280,105.018692 3.012418,104.571663 2.983746,104.336914 
	C3.049841,102.631775 3.144609,101.161392 3.283795,99.001831 
	C5.278961,99.001831 7.052255,99.001831 8.825549,99.001831 
	C88.982674,99.001831 169.139801,99.002831 249.296921,98.997917 
	C252.265472,98.997734 255.741135,98.253235 255.030212,103.663467 
	C255.044952,104.102127 254.987549,104.570618 254.910568,104.793716 
z"/>
<path fill="#211C1C" opacity="1.000000" stroke="none" 
	d="
M255.092255,21.942238 
	C255.413986,22.765615 256.014221,23.588600 256.015411,24.412436 
	C256.031616,35.813046 255.965637,47.213772 255.060410,58.809944 
	C239.131454,58.996822 224.061844,58.988228 208.992249,58.979637 
	C208.992249,58.979637 208.994720,59.005295 209.006561,58.536812 
	C209.045120,46.352844 209.071869,34.637360 209.557434,22.948895 
	C222.828033,22.984911 235.643372,23.167418 248.449631,22.905579 
	C252.735245,22.817953 254.282700,23.828112 254.107117,28.390041 
	C253.742477,37.863228 253.996994,47.360245 253.996994,56.847469 
	C254.315399,56.844398 254.633804,56.841324 254.952209,56.838253 
	C254.952209,45.220890 254.952209,33.603523 254.979233,21.949701 
	C255.006256,21.913242 255.092255,21.942240 255.092255,21.942238 
z"/>
<path fill="#0B0909" opacity="1.000000" stroke="none" 
	d="
M183.003815,87.002518 
	C184.725494,86.667023 186.446198,86.045532 188.169006,86.039688 
	C208.285553,85.971527 228.402420,86.012428 248.519104,85.967621 
	C250.301819,85.963654 252.083633,85.560677 253.865875,85.343018 
	C253.867813,84.787125 253.869751,84.231239 253.871689,83.675346 
	C252.098129,83.451569 250.324982,83.037163 248.550934,83.033157 
	C228.268005,82.987305 207.984741,83.042625 187.702240,82.940666 
	C185.796326,82.931091 182.776642,84.302444 183.072327,80.571518 
	C185.418152,80.816498 187.224091,81.052483 189.030334,81.054893 
	C208.949661,81.081367 228.869156,81.043228 248.788254,81.113167 
	C250.892975,81.120560 252.995651,81.705276 255.099274,82.022148 
	C255.068588,83.398239 255.037903,84.774323 254.472000,86.580765 
	C230.326813,87.030243 206.716827,87.049362 183.081116,87.051971 
	C183.055359,87.035446 183.003815,87.002518 183.003815,87.002518 
z"/>
<path fill="#0B0909" opacity="1.000000" stroke="none" 
	d="
M254.939758,76.762886 
	C232.471497,77.004539 210.077148,77.039436 187.683395,76.940643 
	C185.783951,76.932259 182.761856,78.303047 183.071198,74.568329 
	C185.415146,74.814484 187.220886,75.052322 189.026962,75.054741 
	C208.947311,75.081429 228.867813,75.043221 248.787933,75.113167 
	C250.892761,75.120567 252.995560,75.705261 255.099289,76.022125 
	C255.070786,76.188393 255.042297,76.354668 254.939758,76.762886 
z"/>
<path fill="#0B0909" opacity="1.000000" stroke="none" 
	d="
M254.939758,89.762894 
	C232.475220,90.004539 210.084564,90.044281 187.694672,89.931335 
	C185.813110,89.921844 182.700867,91.418556 182.743027,87.230988 
	C183.003815,87.002518 183.055359,87.035446 183.341217,87.367828 
	C185.433640,87.823990 187.240097,88.053040 189.046829,88.055367 
	C208.961197,88.081070 228.875732,88.043221 248.789871,88.113167 
	C250.894058,88.120552 252.996185,88.705276 255.099274,89.022148 
	C255.070786,89.188416 255.042313,89.354675 254.939758,89.762894 
z"/>
<path fill="#3B3B3B" opacity="1.000000" stroke="none" 
	d="
M255.363190,88.933319 
	C252.996185,88.705276 250.894058,88.120552 248.789871,88.113167 
	C228.875732,88.043221 208.961197,88.081070 189.046829,88.055367 
	C187.240097,88.053040 185.433640,87.823990 183.366959,87.384354 
	C206.716827,87.049362 230.326813,87.030243 254.395599,86.986801 
	C255.111969,87.589813 255.369537,88.217148 255.363190,88.933319 
z"/>
<path fill="#3B3B3B" opacity="1.000000" stroke="none" 
	d="
M255.363220,81.933250 
	C252.995651,81.705276 250.892975,81.120560 248.788254,81.113167 
	C228.869156,81.043228 208.949661,81.081367 189.030334,81.054893 
	C187.224091,81.052483 185.418152,80.816498 183.351868,80.368423 
	C183.091675,80.047867 183.044189,80.006592 183.495712,80.022682 
	C207.583008,80.013023 231.218796,79.987267 254.854568,79.961517 
	C255.112106,80.589127 255.369644,81.216736 255.363220,81.933250 
z"/>
<path fill="#3B3B3B" opacity="1.000000" stroke="none" 
	d="
M255.363861,75.932274 
	C252.995560,75.705261 250.892761,75.120567 248.787933,75.113167 
	C228.867813,75.043221 208.947311,75.081429 189.026962,75.054741 
	C187.220886,75.052322 185.415146,74.814484 183.350266,74.363937 
	C183.091293,74.041916 183.039429,73.997963 183.486374,74.005249 
	C207.569458,73.992119 231.205597,73.971695 254.841736,73.951279 
	C255.103958,74.581665 255.366196,75.212044 255.363861,75.932274 
z"/>
<path fill="#0B0909" opacity="1.000000" stroke="none" 
	d="
M254.925278,79.720688 
	C231.218796,79.987267 207.583008,80.013023 183.478943,80.048775 
	C184.885574,79.704529 186.759491,79.048409 188.635559,79.042130 
	C210.405334,78.969231 232.175446,78.994469 254.405579,78.994385 
	C254.909119,79.156685 254.952545,79.318275 254.925278,79.720688 
z"/>
<path fill="#000000" opacity="1.000000" stroke="none" 
	d="
M254.909973,73.714745 
	C231.205597,73.971695 207.569458,73.992119 183.463730,74.030548 
	C184.872757,73.699036 186.750397,73.051743 188.630157,73.045494 
	C210.397949,72.973145 232.166077,72.997719 254.393402,72.999352 
	C254.852692,73.002129 254.978195,73.478210 254.909973,73.714745 
z"/>
<path fill="#000000" opacity="1.000000" stroke="none" 
	d="
M209.282227,59.283470 
	C224.061844,58.988228 239.131454,58.996822 254.679474,59.025265 
	C255.105484,59.203369 255.053085,59.361626 254.926682,59.758858 
	C239.759186,59.860992 224.665695,59.724152 209.282227,59.283470 
z"/>
<path fill="#000000" opacity="1.000000" stroke="none" 
	d="
M208.995224,21.997746 
	C210.713516,21.665190 212.430099,21.054771 214.150375,21.044216 
	C227.411224,20.962864 240.672775,20.997749 254.393402,20.999393 
	C254.852692,21.002199 254.995865,21.466251 255.044067,21.704247 
	C255.092255,21.942240 255.006256,21.913242 254.513657,21.954407 
	C239.017487,22.000435 224.013931,22.005299 209.006531,22.006359 
	C209.002716,22.002556 208.995224,21.997746 208.995224,21.997746 
z"/>
<path fill="#211C1C" opacity="1.000000" stroke="none" 
	d="
M2.842306,59.045261 
	C2.543007,58.370472 1.983031,57.695614 1.983210,57.020901 
	C1.986270,45.459801 2.058552,33.898720 2.553859,22.125607 
	C2.992097,21.913580 3.047779,21.986164 3.054561,22.455704 
	C3.061342,34.227341 3.061342,45.529438 3.061342,56.831535 
	C4.004237,46.876915 4.093290,36.927242 3.950558,26.980896 
	C3.907126,23.954313 4.897257,22.894152 7.956524,22.947870 
	C15.935535,23.087982 23.919441,22.949339 31.926331,23.394770 
	C31.960724,35.581032 31.970181,47.294392 31.979639,59.007751 
	C31.979639,59.007751 32.005310,59.005306 31.536819,58.993469 
	C21.659655,59.002842 12.250980,59.024052 2.842306,59.045261 
z"/>
<path fill="#0B0909" opacity="1.000000" stroke="none" 
	d="
M30.908955,80.048416 
	C32.264400,83.354324 29.682951,82.943176 27.971325,82.966629 
	C21.473328,83.055687 14.972970,82.964294 8.474509,83.034409 
	C7.010633,83.050201 5.550849,83.445305 4.089181,83.665802 
	C4.120379,84.322784 4.151577,84.979759 4.182774,85.636742 
	C12.926740,85.891747 21.670706,86.146751 30.679993,86.718765 
	C30.945314,87.035774 30.894369,87.069214 30.436750,87.054367 
	C20.951494,87.021057 11.923859,87.002602 2.896221,86.984154 
	C2.922367,85.605782 2.948512,84.227417 3.335098,82.289047 
	C10.086306,81.509872 16.480721,81.362396 22.866112,81.037521 
	C25.556870,80.900627 28.228584,80.389450 30.908955,80.048416 
z"/>
<path fill="#0B0909" opacity="1.000000" stroke="none" 
	d="
M30.970833,87.019119 
	C32.168278,90.744354 29.304714,89.951935 27.484018,89.970253 
	C19.674864,90.048805 11.864482,90.005310 3.594439,90.005585 
	C3.084978,89.843987 3.035626,89.683113 3.340901,89.125626 
	C10.080510,88.509865 16.469009,88.360397 22.848808,88.038475 
	C25.540112,87.902664 28.213072,87.403320 30.894369,87.069214 
	C30.894369,87.069214 30.945314,87.035774 30.970833,87.019119 
z"/>
<path fill="#0B0909" opacity="1.000000" stroke="none" 
	d="
M30.909380,74.042427 
	C32.277843,77.923225 29.194363,76.933464 27.491688,76.956734 
	C19.680540,77.063492 11.867140,77.005287 3.594439,77.005585 
	C3.084979,76.843987 3.035627,76.683113 3.340904,76.125641 
	C10.417002,75.509865 17.141733,75.358421 23.858177,75.034904 
	C26.219036,74.921181 28.559568,74.385460 30.909380,74.042427 
z"/>
<path fill="#3B3B3B" opacity="1.000000" stroke="none" 
	d="
M30.932400,80.027802 
	C28.228584,80.389450 25.556870,80.900627 22.866112,81.037521 
	C16.480721,81.362396 10.086306,81.509872 3.298935,81.876747 
	C2.712264,81.407669 2.522195,80.790886 3.091087,80.094749 
	C12.896484,80.029839 21.942923,80.044289 30.989359,80.058731 
	C30.989359,80.058731 30.955847,80.007195 30.932400,80.027802 
z"/>
<path fill="#3B3B3B" opacity="1.000000" stroke="none" 
	d="
M30.935032,74.020439 
	C28.559568,74.385460 26.219036,74.921181 23.858177,75.034904 
	C17.141733,75.358421 10.417002,75.509865 3.298928,75.876740 
	C2.716323,75.404877 2.530321,74.785316 3.106388,74.080315 
	C12.914256,74.012764 21.960054,74.030655 31.005852,74.048546 
	C31.005852,74.048546 30.960682,73.998451 30.935032,74.020439 
z"/>
<path fill="#3B3B3B" opacity="1.000000" stroke="none" 
	d="
M30.436750,87.054367 
	C28.213072,87.403320 25.540112,87.902664 22.848808,88.038475 
	C16.469009,88.360397 10.080510,88.509865 3.298925,88.876732 
	C2.710988,88.408905 2.519655,87.793373 2.612271,87.080994 
	C11.923859,87.002602 20.951494,87.021057 30.436750,87.054367 
z"/>
<path fill="#000000" opacity="1.000000" stroke="none" 
	d="
M2.920817,59.282681 
	C12.250980,59.024052 21.659655,59.002842 31.538040,58.980633 
	C29.472052,59.319706 26.941284,59.901234 24.399696,59.953167 
	C17.624241,60.091610 10.844133,60.002224 3.606593,60.000622 
	C3.097984,59.838593 3.048656,59.679348 2.920817,59.282681 
z"/>
<path fill="#000000" opacity="1.000000" stroke="none" 
	d="
M3.075647,21.234753 
	C12.570997,21.134979 21.994682,21.267765 31.707830,21.701550 
	C31.997293,22.002550 31.989677,22.010170 31.522068,22.006290 
	C21.718897,21.996998 12.383338,21.991581 3.047779,21.986164 
	C3.047779,21.986164 2.992097,21.913580 2.948953,21.928791 
	C2.905808,21.944004 3.003982,21.467310 3.075647,21.234753 
z"/>
<path fill="#0B0909" opacity="1.000000" stroke="none" 
	d="
M30.709946,79.744339 
	C21.942923,80.044289 12.896484,80.029839 3.375312,79.996719 
	C2.929099,79.811790 2.957622,79.645531 3.060237,79.237228 
	C12.233065,79.140099 21.331799,79.285019 30.709946,79.744339 
z"/>
<path fill="#000000" opacity="1.000000" stroke="none" 
	d="
M30.721235,73.737869 
	C21.960054,74.030655 12.914256,74.012764 3.394763,73.989807 
	C2.949070,73.818771 2.977071,73.652802 3.076191,73.244492 
	C12.243747,73.143822 21.340183,73.285507 30.721235,73.737869 
z"/>
<path fill="#1C1C1C" opacity="1.000000" stroke="none" 
	d="
M49.963776,42.958107 
	C50.167427,43.237743 50.371078,43.517380 51.098190,44.209377 
	C53.261196,44.747284 54.900478,44.977482 56.540333,44.981670 
	C68.653168,45.012592 80.770264,45.178986 92.876808,44.901264 
	C97.152779,44.803173 98.401909,46.261513 98.088760,50.300102 
	C97.919449,52.483696 98.643028,54.736523 98.963791,56.958122 
	C99.167435,57.237755 99.371086,57.517391 100.098190,58.209385 
	C113.506004,58.730911 126.390297,58.851707 139.274887,58.909985 
	C139.834625,58.912521 140.396957,58.340572 140.958084,58.036224 
	C141.237717,57.832569 141.517365,57.628918 142.207901,56.904839 
	C142.745316,54.413109 143.176605,52.403828 142.936676,50.478180 
	C142.389389,46.085449 144.008179,44.780083 148.445358,44.892727 
	C160.551773,45.200077 172.671402,45.036366 184.785080,44.955582 
	C186.511383,44.944065 188.233841,44.356945 189.958084,44.036224 
	C190.237717,43.832569 190.517349,43.628914 191.209213,42.902058 
	C191.430557,36.271313 191.239670,30.163767 191.048782,24.056221 
	C189.322845,23.713974 187.598770,23.086357 185.870651,23.075018 
	C173.041992,22.990845 160.211746,23.093470 147.384384,22.938616 
	C145.954575,22.921356 144.539780,21.658678 143.118027,20.973574 
	C144.564728,20.317467 146.006256,19.104662 147.458939,19.091114 
	C162.452835,18.951294 177.449341,19.088696 192.443085,18.941458 
	C195.827698,18.908222 197.137161,19.790653 197.069427,23.398603 
	C196.863083,34.391197 196.896759,45.391552 197.054535,56.385761 
	C197.102005,59.693947 196.336258,61.075611 192.659729,61.067242 
	C144.508759,60.957615 96.357414,60.967297 48.206345,61.053459 
	C44.913555,61.059349 43.897823,59.999714 43.944336,56.751705 
	C44.104164,45.590908 44.102474,34.425049 43.945068,23.264183 
	C43.899529,20.035357 44.875515,18.911476 48.190914,18.942503 
	C63.517990,19.085943 78.847595,18.957464 94.174744,19.096930 
	C95.416428,19.108227 96.646416,20.406940 97.881836,21.107416 
	C96.582115,21.747755 95.287346,22.932943 93.981903,22.944834 
	C79.654404,23.075323 65.325233,23.022921 50.217285,23.289631 
	C49.613289,30.025436 49.788528,36.491772 49.963776,42.958107 
M147.776962,50.609070 
	C147.786362,51.044281 147.795746,51.479496 147.309845,52.535938 
	C147.228439,54.142124 147.147034,55.748310 147.052902,57.605621 
	C156.532486,57.605621 165.544785,57.605621 174.639587,57.605621 
	C174.639587,54.644157 174.639587,52.082973 174.639587,48.999401 
	C166.519150,48.999401 158.749268,48.963219 150.980545,49.041862 
	C149.923096,49.052574 148.871460,49.637371 147.776962,50.609070 
z"/>
<path fill="#121212" opacity="1.000000" stroke="none" 
	d="
M97.960709,38.928776 
	C96.224091,38.618027 94.489357,38.050941 92.750557,38.038181 
	C81.588547,37.956287 70.422890,37.854927 59.264595,38.074051 
	C55.488754,38.148201 54.931194,36.512390 54.915161,33.308430 
	C54.899277,30.134001 55.774872,28.889565 59.148235,28.938826 
	C70.808159,29.109091 82.474319,29.119823 94.132538,28.898212 
	C96.270569,28.857571 98.358955,27.371164 100.515701,26.697620 
	C101.743568,26.314163 103.062561,26.039404 104.342064,26.033201 
	C115.004601,25.981501 125.669067,25.912838 136.328644,26.097715 
	C138.004303,26.126780 139.619110,27.530773 141.334015,28.070236 
	C142.849823,28.547062 144.464432,28.953974 146.038071,28.963692 
	C157.866653,29.036758 169.697662,29.118437 181.523804,28.933508 
	C185.027649,28.878716 186.117111,29.996674 186.103745,33.480377 
	C186.090637,36.905647 185.116989,38.095356 181.564468,38.073109 
	C168.921432,37.993931 156.276398,38.232807 143.097473,38.667622 
	C142.562805,38.983986 142.084702,39.011440 142.084702,39.011440 
	C141.900223,39.006462 141.715744,39.001488 141.266388,38.997868 
	C141.001495,38.999222 141.005356,39.019520 140.717117,38.714161 
	C127.504967,38.291470 114.581123,38.162064 101.656944,38.098194 
	C101.104370,38.095463 100.548798,38.698616 99.996559,39.009354 
	C99.998497,38.999191 100.022278,39.006474 100.022278,39.006474 
	C99.837761,39.003147 99.653236,38.999817 98.953156,38.989861 
	C98.437607,38.983238 97.960709,38.928776 97.960709,38.928776 
z"/>
<path fill="#171717" opacity="1.000000" stroke="none" 
	d="
M99.996895,46.186836 
	C99.670410,42.907547 100.922043,41.936401 103.719093,41.963326 
	C114.860718,42.070568 126.005234,42.099380 137.145859,41.948898 
	C140.320328,41.906021 141.002167,43.189369 141.064224,46.081249 
	C141.298645,57.006069 141.389999,57.004116 130.516373,57.004108 
	C122.200951,57.004105 113.877274,56.784073 105.573524,57.095482 
	C101.325066,57.254807 99.248283,56.232155 99.955933,51.640232 
	C100.206284,50.015717 99.996056,48.320217 99.996895,46.186836 
z"/>
<path fill="#171717" opacity="1.000000" stroke="none" 
	d="
M100.068253,22.873756 
	C99.728539,19.820053 100.944901,18.953920 103.498047,18.973064 
	C114.805656,19.057840 126.115845,18.924126 137.420166,19.134649 
	C138.618774,19.156969 139.785049,20.915434 140.966324,21.868456 
	C139.871658,22.907438 138.794037,24.827888 137.679718,24.849409 
	C126.209473,25.070959 114.732841,25.028954 103.259499,24.912258 
	C102.202881,24.901512 101.156662,23.868536 100.068253,22.873756 
z"/>
<path fill="#2A2A2A" opacity="1.000000" stroke="none" 
	d="
M97.495903,38.941986 
	C97.960709,38.928776 98.437607,38.983238 98.676430,38.997299 
	C99.557716,42.614182 97.529373,43.024261 94.586929,42.999516 
	C81.031036,42.885506 67.473831,42.928474 53.593742,42.603668 
	C53.540825,41.493999 53.811256,40.695808 54.081688,39.897614 
	C56.005440,39.586716 57.927448,39.019699 59.853241,39.006538 
	C72.245392,38.921879 84.638382,38.958435 97.495903,38.941986 
z"/>
<path fill="#2A2A2A" opacity="1.000000" stroke="none" 
	d="
M142.057999,39.430386 
	C142.084702,39.011440 142.562805,38.983986 142.801056,38.956375 
	C155.628174,38.940815 168.217194,38.928875 180.805817,38.992092 
	C182.590942,39.001060 184.374237,39.375595 186.562164,40.100014 
	C187.006134,41.331711 187.046326,42.044331 187.086517,42.756950 
	C173.153534,42.821838 159.219849,42.956589 145.288925,42.816856 
	C144.193237,42.805866 143.116714,40.883427 142.057999,39.430386 
z"/>
<path fill="#171717" opacity="1.000000" stroke="none" 
	d="
M187.110886,28.001526 
	C172.164627,28.001526 157.218384,28.001526 142.272125,28.001526 
	C142.199982,27.318684 142.127838,26.635839 142.055679,25.952997 
	C143.102112,25.635319 144.147278,25.045921 145.195145,25.041111 
	C158.830597,24.978506 172.466675,24.964315 186.101730,25.059761 
	C187.268677,25.067930 188.429550,25.943705 189.425049,26.793564 
	C188.541534,27.447634 187.826218,27.724581 187.110886,28.001526 
z"/>
<path fill="#171717" opacity="1.000000" stroke="none" 
	d="
M51.962910,26.113026 
	C53.328861,25.740532 54.692818,25.053173 56.061073,25.044498 
	C69.008018,24.962433 81.955765,24.978403 94.903084,25.022688 
	C96.217964,25.027185 97.531578,25.402386 98.832214,26.610489 
	C91.696190,28.448994 84.458122,27.844233 77.287560,27.958105 
	C69.819687,28.076696 62.348644,27.994961 54.428398,28.003561 
	C53.977810,28.006304 53.994087,28.053640 53.891945,27.817600 
	C53.510693,27.394165 53.231579,27.206766 52.976768,27.009823 
	C53.001076,27.000277 52.980579,27.048315 52.880379,26.813038 
	C52.502407,26.389673 52.224644,26.201586 51.973392,26.034756 
	C51.999908,26.056011 51.962910,26.113026 51.962910,26.113026 
z"/>
<path fill="#211C1C" opacity="1.000000" stroke="none" 
	d="
M140.989624,39.002853 
	C140.030258,39.666454 139.088730,40.890682 138.134415,40.900730 
	C126.150848,41.026951 114.165329,40.996403 102.180809,40.923473 
	C101.510071,40.919388 100.843712,40.194984 100.098801,39.406158 
	C100.022278,39.006474 99.998497,38.999191 100.465897,38.997292 
	C114.290642,39.003437 127.648003,39.011478 141.005356,39.019520 
	C141.005356,39.019520 141.001495,38.999222 140.989624,39.002853 
z"/>
<path fill="#2A2A2A" opacity="1.000000" stroke="none" 
	d="
M98.971939,56.497192 
	C98.643028,54.736523 97.919449,52.483696 98.088760,50.300102 
	C98.401909,46.261513 97.152779,44.803173 92.876808,44.901264 
	C80.770264,45.178986 68.653168,45.012592 56.540333,44.981670 
	C54.900478,44.977482 53.261196,44.747284 51.332191,44.328865 
	C66.733582,44.035988 82.424438,44.035988 98.980080,44.035988 
	C98.980080,48.264763 98.980080,52.150513 98.971939,56.497192 
z"/>
<path fill="#2A2A2A" opacity="1.000000" stroke="none" 
	d="
M189.493866,44.028053 
	C188.233841,44.356945 186.511383,44.944065 184.785080,44.955582 
	C172.671402,45.036366 160.551773,45.200077 148.445358,44.892727 
	C144.008179,44.780083 142.389389,46.085449 142.936676,50.478180 
	C143.176605,52.403828 142.745316,54.413109 142.327393,56.670845 
	C142.035965,52.866165 142.035965,48.775059 142.035965,44.019886 
	C158.058624,44.019886 173.544144,44.019886 189.493866,44.028053 
z"/>
<path fill="#3B3B3B" opacity="1.000000" stroke="none" 
	d="
M187.073639,28.460340 
	C187.826218,27.724581 188.541534,27.447634 189.540863,27.175747 
	C189.841095,31.103628 190.025497,35.037014 189.780136,38.943409 
	C189.696915,40.268478 188.528534,41.525387 187.471252,42.785194 
	C187.046326,42.044331 187.006134,41.331711 186.942932,40.258163 
	C186.958725,36.237877 186.997543,32.578514 187.073639,28.460340 
z"/>
<path fill="#3B3B3B" opacity="1.000000" stroke="none" 
	d="
M54.046970,39.447666 
	C53.811256,40.695808 53.540825,41.493999 53.124916,42.572525 
	C52.361549,41.518276 51.266247,40.201572 51.215450,38.845737 
	C51.064106,34.806190 51.322914,30.751272 51.692196,26.407692 
	C51.962910,26.113026 51.999908,26.056011 52.054359,26.285217 
	C52.399399,26.692385 52.689991,26.870350 52.980579,27.048315 
	C52.980579,27.048315 53.001076,27.000277 53.062794,27.254992 
	C53.414371,27.691017 53.704227,27.872330 53.994087,28.053640 
	C53.994087,28.053640 53.977810,28.006304 53.955898,28.021566 
	C53.960075,31.690458 53.986164,35.344090 54.046970,39.447666 
z"/>
<path fill="#2A2A2A" opacity="1.000000" stroke="none" 
	d="
M140.493866,58.028053 
	C140.396957,58.340572 139.834625,58.912521 139.274887,58.909985 
	C126.390297,58.851707 113.506004,58.730911 100.332199,58.328865 
	C113.371712,58.030617 126.700691,58.025249 140.493866,58.028053 
z"/>
<path fill="#2A2A2A" opacity="1.000000" stroke="none" 
	d="
M49.971943,42.494148 
	C49.788528,36.491772 49.613289,30.025436 49.753029,23.276733 
	C50.038715,29.339643 50.009415,35.684917 49.971943,42.494148 
z"/>
<path fill="#2A2A2A" opacity="1.000000" stroke="none" 
	d="
M191.035828,24.518370 
	C191.239670,30.163767 191.430557,36.271313 191.328674,42.668053 
	C191.031570,36.965004 191.027222,30.972761 191.035828,24.518370 
z"/>
<path fill="#000000" opacity="1.000000" stroke="none" 
	d="
M209.098618,22.921873 
	C209.071869,34.637360 209.045120,46.352844 209.019379,58.538040 
	C208.700500,58.453098 208.099396,57.897045 208.102173,57.344002 
	C208.160019,45.757122 208.286163,34.170586 208.697052,22.290863 
	C208.995224,21.997746 209.002716,22.002556 209.015884,22.235462 
	C209.029053,22.468370 209.098618,22.921873 209.098618,22.921873 
z"/>
<path fill="#000000" opacity="1.000000" stroke="none" 
	d="
M32.283474,58.717766 
	C31.970181,47.294392 31.960724,35.581032 31.961452,23.168329 
	C31.971640,22.468988 31.989677,22.010170 31.989677,22.010170 
	C31.989677,22.010170 31.997293,22.002550 32.001034,22.000114 
	C32.317535,22.556841 32.905594,23.117542 32.902477,23.674938 
	C32.837715,35.259445 32.705891,46.843578 32.283474,58.717766 
z"/>
<path fill="#3B3B3B" opacity="1.000000" stroke="none" 
	d="
M209.557434,22.948895 
	C209.098618,22.921873 209.029053,22.468370 209.019714,22.239267 
	C224.013931,22.005299 239.017487,22.000435 254.486633,21.990864 
	C254.952209,33.603523 254.952209,45.220890 254.952209,56.838253 
	C254.633804,56.841324 254.315399,56.844398 253.996994,56.847469 
	C253.996994,47.360245 253.742477,37.863228 254.107117,28.390041 
	C254.282700,23.828112 252.735245,22.817953 248.449631,22.905579 
	C235.643372,23.167418 222.828033,22.984911 209.557434,22.948895 
z"/>
<path fill="#3B3B3B" opacity="1.000000" stroke="none" 
	d="
M31.522068,22.006290 
	C31.989677,22.010170 31.971640,22.468988 31.936516,22.695429 
	C23.919441,22.949339 15.935535,23.087982 7.956524,22.947870 
	C4.897257,22.894152 3.907126,23.954313 3.950558,26.980896 
	C4.093290,36.927242 4.004237,46.876915 3.061342,56.831535 
	C3.061342,45.529438 3.061342,34.227341 3.054561,22.455704 
	C12.383338,21.991581 21.718897,21.996998 31.522068,22.006290 
z"/>
<path fill="#D77E0A" opacity="1.000000" stroke="none" 
	d="
M147.805145,51.914707 
	C147.795746,51.479496 147.786362,51.044281 148.279205,50.256699 
	C157.046112,49.904327 165.310791,49.904327 173.676422,49.904327 
	C173.676422,52.463470 173.676422,54.474556 173.676422,56.575916 
	C165.011765,56.575916 156.777908,56.575916 148.458908,56.575916 
	C148.214645,54.834461 148.009903,53.374584 147.805145,51.914707 
z"/>
<path fill="#5E2901" opacity="1.000000" stroke="none" 
	d="
M147.557495,52.225323 
	C148.009903,53.374584 148.214645,54.834461 148.458908,56.575916 
	C156.777908,56.575916 165.011765,56.575916 173.676422,56.575916 
	C173.676422,54.474556 173.676422,52.463470 173.676422,49.904327 
	C165.310791,49.904327 157.046112,49.904327 148.299286,49.930344 
	C148.871460,49.637371 149.923096,49.052574 150.980545,49.041862 
	C158.749268,48.963219 166.519150,48.999401 174.639587,48.999401 
	C174.639587,52.082973 174.639587,54.644157 174.639587,57.605621 
	C165.544785,57.605621 156.532486,57.605621 147.052902,57.605621 
	C147.147034,55.748310 147.228439,54.142124 147.557495,52.225323 
z"/>
<path fill="#030303" opacity="1.000000" stroke="none" 
	d="
M140.717117,38.714161 
	C127.648003,39.011478 114.290642,39.003437 100.463959,39.007454 
	C100.548798,38.698616 101.104370,38.095463 101.656944,38.098194 
	C114.581123,38.162064 127.504967,38.291470 140.717117,38.714161 
z"/>
<path fill="#030303" opacity="1.000000" stroke="none" 
	d="
M52.880379,26.813038 
	C52.689991,26.870350 52.399399,26.692385 52.027843,26.263960 
	C52.224644,26.201586 52.502407,26.389673 52.880379,26.813038 
z"/>
<path fill="#030303" opacity="1.000000" stroke="none" 
	d="
M53.891945,27.817600 
	C53.704227,27.872330 53.414371,27.691017 53.038490,27.264538 
	C53.231579,27.206766 53.510693,27.394165 53.891945,27.817600 
z"/>
</svg>